<svg xmlns="http://www.w3.org/2000/svg" xmlns:xlink="http://www.w3.org/1999/xlink" width="1390" height="816" viewBox="0 0 1390 816">
  <defs>
    <rect id="rect-1" width="1390" height="816" x="0" y="0"/>
    <mask id="mask-2" maskContentUnits="userSpaceOnUse" maskUnits="userSpaceOnUse">
      <rect width="1390" height="816" x="0" y="0" fill="black"/>
      <use fill="white" xlink:href="#rect-1"/>
    </mask>
    <path id="path-3" fill-rule="evenodd" d="M0 0v816h1390V0H0z"/>
    <mask id="mask-4" maskContentUnits="userSpaceOnUse" maskUnits="userSpaceOnUse">
      <rect width="1390" height="816" x="0" y="0" fill="black"/>
      <use fill="white" xlink:href="#path-3"/>
    </mask>
  </defs>
  <g opacity=".47">
    <use fill="none" xlink:href="#rect-1"/>
    <g mask="url(#mask-2)">
      <use fill="none" xlink:href="#path-3"/>
      <g mask="url(#mask-4)">
        <rect width="1390" height="816" x="0" y="0" fill="rgb(0,0,0)" rx="0" ry="0"/>
        <path fill="none" stroke="rgb(237,196,26)" stroke-dasharray="0 0 0 0" stroke-linecap="butt" stroke-linejoin="miter" stroke-opacity=".58" stroke-width="2" d="M195.46875 118.10844444c-13.02401042 0-10.18609375 43.14222223-21.71875 85.89155556-27.56109375 102.19644444-64.07755208 118.63733333-56.46875 204 3.25057292 36.47066667 36.17619792 36.33466667 78.1875 39.66666667 94.81682292 7.51777777 98.32802083-4.828 195.46875-17.96711111C440.39833333 423.00533333 488.671875 418.84977778 488.671875 408s-59.2053125 8.31111111-97.734375-21.69955556C298.5025 314.31111111 298.22739583 302.07866667 226.74375 204c-26.25072917-36.01733333-17.80213542-85.89155556-31.275-85.89155556"/>
        <path fill="none" stroke="rgb(237,196,26)" stroke-dasharray="0 0 0 0" stroke-linecap="butt" stroke-linejoin="miter" stroke-opacity=".58" stroke-width="2" d="M781.875 167.84666667C730.1409375 167.84666667 672.4125 180.948 672.4125 204c0 24.77466667 60.74734375 59.5 109.4625 59.5 28.82078125 0 45.609375-32.70044444 45.609375-59.5 0-21.02711111-19.8075-36.15333333-45.609375-36.15333333"/>
        <path fill="none" stroke="rgb(237,196,26)" stroke-dasharray="0 0 0 0" stroke-linecap="butt" stroke-linejoin="miter" stroke-opacity=".58" stroke-width="2" d="M977.34375 403.66311111c-2.67140625 0-5.58171875 1.68488889-5.58171875 4.33688889 0 3.76266667 2.9971875 8.5 5.58171875 8.5 2.42526042 0 4.44510417-4.624 4.44510417-8.5 0-2.53866667-2.10671875-4.33688889-4.44510417-4.33688889"/>
        <path fill="none" stroke="rgb(237,196,26)" stroke-dasharray="0 0 0 0" stroke-linecap="butt" stroke-linejoin="miter" stroke-opacity=".58" stroke-width="2" d="M586.40625 480.85822222c-24.90416667 0-34.49661458 68.95955556-34.49661458 131.14177778 0 27.54755556 13.17604166 48.31777778 34.49661458 48.31777778C617.51473958 660.31777778 656.775 645.116 656.775 612c0-56.61377778-42.84385417-131.14177778-70.36875-131.14177778"/>
        <path fill="none" stroke="rgb(237,196,26)" stroke-dasharray="0 0 0 0" stroke-linecap="butt" stroke-linejoin="miter" stroke-opacity=".58" stroke-width="2" d="M94.11458333 0c35.75630209 68.89155556 34.67036459 109.32133333 11.76432292 204C81.72765625 303.83155556 28.48776042 389.02044444 0 389.02044444c-24.4553125 0 0-92.51022222 0-185.02044444C0 102-31.76729167 68.85377778 0 0c15.29723958-33.15377778 76.9278125-33.10844444 94.11458333 0"/>
        <path fill="none" stroke="rgb(237,196,26)" stroke-dasharray="0 0 0 0" stroke-linecap="butt" stroke-linejoin="miter" stroke-opacity=".58" stroke-width="2" d="M324.478125 204c0-61.89511111 26.22177083-133.38577778 66.459375-133.38577778 46.58671875 0 107.18927083 74.8528889 107.18927083 133.38577778 0 45.05377778-57.73567708 73.78755556-107.18927083 73.78755556-37.37072917 0-66.459375-32.096-66.459375-73.78755556"/>
        <path fill="none" stroke="rgb(237,196,26)" stroke-dasharray="0 0 0 0" stroke-linecap="butt" stroke-linejoin="miter" stroke-opacity=".58" stroke-width="2" d="M781.875 103.292C698.22161458 46.55733333 608.125 27.63066667 608.125 0c0-24.01155556 86.875 0 173.75 0h195.46875c41.59140625 0 73.15598958-30.37333333 83.17557292 0 23.62276041 71.62666667 10.73630208 109.53288889-15.88364584 204-14.96421875 53.108-33.46859375 91.15022222-67.29192708 91.15022222-34.03328125 0-28.32848958-51.80088889-68.4140625-91.15022222-57.64880208-56.58355556-60.30572917-55.44266667-127.0546875-100.708"/>
        <path fill="none" stroke="rgb(237,196,26)" stroke-dasharray="0 0 0 0" stroke-linecap="butt" stroke-linejoin="miter" stroke-opacity=".58" stroke-width="2" d="M1312.43510417 204c28.63979166-29.47422222 27.105-60.44444444 55.84614583-60.44444444 30.45692708 0 47.50614583 20.80044444 62.55 60.44444444 35.1409375 92.57822222 53.2978125 107.88577778 37.82682292 204-15.80401042 98.16933333-48.563125 93.46977778-100.37682292 184.57466667-6.19708333 10.8951111-5.55276042 12.444-15.6375 19.42533333-87.64963542 60.656-87.38177083 62.75644444-179.83125 115.84933333C1087.63880208 776.75644444 1086.00265625 776.03866667 997.39015625 816c-9.121875 4.11777778-10.01958333 0-20.04640625 0-13.48010417 0-26.96020833 11.45422222-26.96020833 0 0-56.54577778 15.21036458-67.69777778 26.96020833-136 5.79890625-33.69777778-4.9953125-37.06755556 8.14453125-68 44.61755208-105.06755556 42.77145833-111.82977778 107.36302083-204 29.06692709-41.48 42.53979167-28.53733333 79.96119792-63.308 72.366875-67.22933333 70.52802083-69.59422222 139.62260417-140.692"/>
        <path fill="none" stroke="rgb(237,196,26)" stroke-dasharray="0 0 0 0" stroke-linecap="butt" stroke-linejoin="miter" stroke-opacity=".58" stroke-width="2" d="M721.21453125 408c0-26.73155556 31.12296875-38.24622222 60.66046875-38.24622222 25.92494792 0 50.26442708 12.90488889 50.26442708 38.24622222 0 44.78177778-23.16666666 102-50.26442708 102-28.3646875 0-60.66046875-58.60844444-60.66046875-102"/>
        <path fill="none" stroke="rgb(237,196,26)" stroke-dasharray="0 0 0 0" stroke-linecap="butt" stroke-linejoin="miter" stroke-opacity=".58" stroke-width="2" d="M34.20703125 612c76.76854167-51.87644444 74.86453125-75.63111111 161.26171875-93.5 91.97166667-19.02488889 107.985625-11.67333333 195.46875 19.71244444 42.829375 15.368 65.15625 38.23111112 65.15625 73.78755556 0 32.85911111-24.56390625 50.10844444-65.15625 63.05111111-89.72015625 28.61288889-110.14302083-18.02755555-195.46875 20.06C122.92088542 727.49422222 142.57635417 774.32355556 75.18307292 816 44.84197917 834.768 12.09734375 842.61066667 0 816c-25.4978125-56.09244444-12.98057292-88.00711111 0-165.40622222C4.1265625 625.99288888 13.24119792 626.16666667 34.20703125 612"/>
        <path fill="none" stroke="rgb(237,196,26)" stroke-dasharray="0 0 0 0" stroke-linecap="butt" stroke-linejoin="miter" stroke-opacity=".58" stroke-width="2" d="M567.79328125 816c0-6.42222222 8.36171875-21.47288889 18.61296875-21.47288889 12.53171875 0 26.96020833 15.48888889 26.96020833 21.47288889 0 4.75244444-13.48010416 0-26.96020833 0-9.31010417 0-18.61296875 4.31422222-18.61296875 0"/>
        <path fill="none" stroke="rgb(237,196,26)" stroke-dasharray="0 0 0 0" stroke-linecap="butt" stroke-linejoin="miter" stroke-opacity=".58" stroke-width="2" d="M0 94.15733333c9.79515625 0 38.0078125 56.8328889 38.0078125 109.84266667 0 35.11822222-27.78552083 66.42088889-38.0078125 66.42088889-8.78161458 0 0-33.20666667 0-66.42088889C0 149.07866667-9.20875 94.15733333 0 94.15733333"/>
        <path fill="none" stroke="rgb(237,196,26)" stroke-dasharray="0 0 0 0" stroke-linecap="butt" stroke-linejoin="miter" stroke-opacity=".58" stroke-width="2" d="M781.875 38.73733333c-35.0975 0-65.15625-28.3711111-65.15625-38.73733333 0-9.00622222 32.578125 0 65.15625 0 73.30078125 0 146.6015625-9.53511111 146.6015625 0 0 9.83733333-75.82015625 38.73733333-146.6015625 38.73733333"/>
        <path fill="none" stroke="rgb(237,196,26)" stroke-dasharray="0 0 0 0" stroke-linecap="butt" stroke-linejoin="miter" stroke-opacity=".58" stroke-width="2" d="M1241.2265625 408c0-50.47866667 79.63541667-120.54888889 127.0546875-120.54888889 33.28036458 0 34.33734375 62.31822222 34.33734375 120.54888889 0 33.61466667-7.645 63.14177778-34.33734375 63.14177778-54.00005208 0-127.0546875-21.77511111-127.0546875-63.14177778"/>
        <path fill="none" stroke="rgb(237,196,26)" stroke-dasharray="0 0 0 0" stroke-linecap="butt" stroke-linejoin="miter" stroke-opacity=".58" stroke-width="2" d="M156.375 612c0-10.84222222 17.96864583-22.66666667 39.09375-22.66666667 47.28895833 0 97.734375 11.93777778 97.734375 22.66666667 0 10.676-50.14859375 20.15066667-97.734375 20.15066667-20.82828125 0-39.09375-9.58044445-39.09375-20.15066667"/>
        <path fill="none" stroke="rgb(237,196,26)" stroke-dasharray="0 0 0 0" stroke-linecap="butt" stroke-linejoin="miter" stroke-opacity=".58" stroke-width="2" d="M1087.29854167 612c0-64.91733333 43.40130208-153 85.51395833-153 41.69276042 0 82.096875 87.60666667 82.096875 153 0 37.55111111-40.81677083 52.88888889-82.096875 52.88888889-42.5253125 0-85.51395833-14.86177778-85.51395833-52.88888889"/>
        <path fill="none" stroke="rgb(237,196,26)" stroke-dasharray="0 0 0 0" stroke-linecap="butt" stroke-linejoin="miter" stroke-opacity=".58" stroke-width="2" d="M0 788.42977778c3.29401042 0 12.53171875 17.92177778 12.53171875 27.57022222 0 4.13288889-10.51911458 4.43511111-12.53171875 0-4.24963542-9.34622222-2.97546875-27.57022222 0-27.57022222"/>
      </g>
    </g>
  </g>
</svg>
